HIERARCHY
ROOT Hips
{
  OFFSET -125.086 92.215 135.881
  CHANNELS 6 Xposition Yposition Zposition Zrotation Xrotation Yrotation
  JOINT LeftUpLeg
  {
    OFFSET 8.64259 1.95398 -2.38835
    CHANNELS 3 Zrotation Xrotation Yrotation
    JOINT LeftLeg
    {
      OFFSET 43.7702 0 0
      CHANNELS 3 Zrotation Xrotation Yrotation
      JOINT LeftFoot
      {
        OFFSET 40.6238 0 0
        CHANNELS 3 Zrotation Xrotation Yrotation
        JOINT LeftToeBase
        {
          OFFSET 12.7242 0 0
          CHANNELS 3 Zrotation Xrotation Yrotation
          End Site
          {
            OFFSET 0 0 0
          }
        }
      }
    }
  }
  JOINT RightUpLeg
  {
    OFFSET -8.2249 1.95398 -2.59336
    CHANNELS 3 Zrotation Xrotation Yrotation
    JOINT RightLeg
    {
      OFFSET 43.5653 0 0
      CHANNELS 3 Zrotation Xrotation Yrotation
      JOINT RightFoot
      {
        OFFSET 40.6238 0 0
        CHANNELS 3 Zrotation Xrotation Yrotation
        JOINT RightToeBase
        {
          OFFSET 12.7242 0 0
          CHANNELS 3 Zrotation Xrotation Yrotation
          End Site
          {
            OFFSET 0 0 0
          }
        }
      }
    }
  }
  JOINT Spine
  {
    OFFSET 0.165834 0.87714 6.61349
    CHANNELS 3 Zrotation Xrotation Yrotation
    JOINT Spine1
    {
      OFFSET 7.38963 1.71661e-005 0
      CHANNELS 3 Zrotation Xrotation Yrotation
      JOINT Spine2
      {
        OFFSET 11.9445 1.14441e-005 0
        CHANNELS 3 Zrotation Xrotation Yrotation
        JOINT Spine3
        {
          OFFSET 14.7254 4.19617e-005 0
          CHANNELS 3 Zrotation Xrotation Yrotation
          JOINT Spine4
          {
            OFFSET 10.9679 0 0
            CHANNELS 3 Zrotation Xrotation Yrotation
            JOINT RightShoulder
            {
              OFFSET 2.46616 -1.6653 3.69651
              CHANNELS 3 Zrotation Xrotation Yrotation
              JOINT RightArm
              {
                OFFSET 13.0012 0 0
                CHANNELS 3 Zrotation Xrotation Yrotation
                JOINT RightForeArm
                {
                  OFFSET 28.7848 1.52588e-005 0
                  CHANNELS 3 Zrotation Xrotation Yrotation
                  JOINT RightHand
                  {
                    OFFSET 26.5688 1.52588e-005 0
                    CHANNELS 3 Zrotation Xrotation Yrotation
                    End Site
                    {
                      OFFSET 0 0 0
                    }
                  }
                }
              }
            }
            JOINT LeftShoulder
            {
              OFFSET 2.38034 -1.29275 -3.7523
              CHANNELS 3 Zrotation Xrotation Yrotation
              JOINT LeftArm
              {
                OFFSET 16.3182 6.10352e-005 0
                CHANNELS 3 Zrotation Xrotation Yrotation
                JOINT LeftForeArm
                {
                  OFFSET 27.0901 0 0
                  CHANNELS 3 Zrotation Xrotation Yrotation
                  JOINT LeftHand
                  {
                    OFFSET 24.5451 1.52588e-005 0
                    CHANNELS 3 Zrotation Xrotation Yrotation
                    End Site
                    {
                      OFFSET 0 0 0
                    }
                  }
                }
              }
            }
            JOINT Neck
            {
              OFFSET 5.0226 -0.0266342 0
              CHANNELS 3 Zrotation Xrotation Yrotation
              JOINT Head
              {
                OFFSET 6.69363 2.86102e-005 0
                CHANNELS 3 Zrotation Xrotation Yrotation
                End Site
                {
                  OFFSET 0 0 0
                }
              }
            }
          }
        }
      }
    }
  }
}
MOTION
Frames:	7
Frame Time:	0.0416667
99.504 95.9328 -61.5061 -110.508 -65.5122 -108.29 -179.026 18.1588 89.0221 -58.0222 9.00421 3.96709 55.6273 4.4514 5.54493 57.6636 -0.973603 10.7869 175.244 6.42436 90.8806 -34.4357 -2.88476 0.388732 69.3626 -0.114378 13.5254 31.6113 -0.342902 -1.36081 -0.0844815 7.75601 -90.4236 11.3598 -0.3655 -0.806969 -0.311306 -0.400662 -0.790108 -22.8445 -0.106088 -0.8795 -2.83187 -0.106086 -0.879505 111.151 -51.9279 -68.5112 28.5291 -0.839672 -11.2459 -5.33673 -32.407 -20.5831 -7.01377 -0.340732 0.512755 -73.8186 -47.8801 103.143 -42.0347 -15.3073 -12.9048 15.1674 63.3195 -9.49616 -9.80922 0.18857 -8.66239 -5.7081 -4.01229 -5.12545 -26.9194 -3.77653 1.01163 
95.2835 96.0045 -54.6709 -107.276 -62.6096 -105.136 -179.697 17.3308 89.3972 -29.5421 7.79607 2.70175 52.6915 3.30919 6.38653 55.9997 -1.04564 10.6519 175.511 0.803965 90.2033 -32.4697 -3.68135 -0.359613 71.2087 -1.30284 14.3179 35.3108 -0.983494 -0.648908 0.045123 7.79465 -90.3867 11.2838 -0.0902607 -0.760831 -0.387378 -0.123665 -0.756125 -22.9208 0.142569 -0.752782 -2.90818 0.142556 -0.752792 110.977 -51.5707 -68.7159 27.3449 -4.42867 -14.6833 -2.78956 -24.5296 -22.9774 -12.3267 -0.41794 -1.30781 -73.4496 -48.7317 103.65 -39.7927 -19.5823 -6.32791 17.5288 63.9126 -11.1377 -9.86697 0.0941561 -7.14682 -5.4306 -4.00716 -4.82968 -25.938 -3.8116 1.20333 
91.1503 95.452 -47.6911 -102.428 -59.4161 -99.1294 179.247 16.5622 91.3 -7.18642 15.7937 4.2089 53.5049 2.19912 3.77362 47.7272 -1.00612 11.5389 175.613 -2.62083 92.529 -31.7081 -6.5803 -0.627034 70.5872 -2.07105 14.9692 42.1813 -2.11104 -0.107974 0.1979 7.74149 -90.4946 11.3901 0.163073 -1.0014 -0.281245 0.118843 -1.0076 -22.8138 0.456482 -0.906105 -2.80111 0.456488 -0.906099 110.922 -51.6942 -68.8208 26.1398 -4.93681 -17.4214 -5.91144 -26.2272 -27.5543 -11.3662 -0.479979 -0.324316 -73.277 -49.2665 103.872 -39.1418 -21.2278 -3.62077 18.0082 64.0725 -11.1507 -14.4412 0.355693 -8.56437 -6.16253 -3.90206 -5.28043 -24.7285 -3.76233 1.60532 
86.6765 94.4028 -39.5571 -100.259 -54.775 -96.8838 178.767 17.3751 91.5166 -9.38413 21.0788 6.50919 50.7202 -0.768278 2.21688 48.9471 -1.13452 9.73263 175.785 -5.87465 90.5701 -34.8633 -11.6941 -2.7957 67.3537 -1.49237 16.2168 52.7655 -3.63242 0.90456 0.384939 7.71775 -90.3642 11.439 0.595732 -0.787578 -0.232051 0.560514 -0.813052 -22.7671 0.804902 -0.572141 -2.75441 0.804906 -0.572134 110.009 -51.8707 -70.2309 26.8942 -4.54116 -15.8037 -7.27973 -26.8973 -29.1566 -12.5813 -0.552738 -0.0763699 -72.4156 -49.4725 105.171 -38.2159 -20.5143 -4.09307 18.1805 63.7932 -12.141 -15.5438 0.383335 -8.47242 -6.95406 -4.15549 -5.61412 -25.5336 -4.00373 1.41148 
81.9343 93.4737 -31.0497 -102.209 -52.2119 -101.089 178.074 18.0837 88.7853 -23.3811 21.0742 5.354 48.935 -2.01289 7.40162 45.2108 -1.28156 4.13275 174.277 -7.39282 85.3957 -42.3307 -12.5147 -4.1928 56.7629 1.90467 21.079 61.0838 -3.47633 8.26625 0.241891 7.90871 -89.8771 11.056 0.538633 0.192788 -0.614799 0.546597 0.168897 -23.1505 0.455794 0.345768 -3.13788 0.455793 0.345763 110.633 -51.9622 -69.3007 29.094 -2.96894 -13.7808 -6.51003 -29.8451 -24.8633 -10.1099 -0.441838 -0.101831 -72.4029 -49.3506 105.202 -38.1476 -19.355 -8.46505 17.3609 63.6663 -11.2473 -12.2045 0.23471 -8.14987 -7.73613 -4.78294 -5.08833 -24.2693 -4.46665 0.132242 
77.6923 92.8802 -24.0742 -101.199 -48.5489 -101.7 -178.543 17.3985 86.9743 -33.2261 18.875 3.89725 57.4747 1.9133 11.7392 43.8482 -1.26567 1.18532 174.923 2.82702 82.7 -62.5888 -11.2723 -4.57802 43.906 5.06557 18.6314 35.0734 -0.937631 -1.08456 0.0557216 7.97516 -89.5245 10.9202 0.330857 0.914533 -0.751049 0.370805 0.899065 -23.2834 0.0407296 0.971687 -3.27078 0.0407178 0.971673 110.342 -51.8812 -69.7283 31.8864 -0.79175 -12.8234 -5.19829 -36.7741 -18.0612 -6.90817 -0.316711 0.238127 -73.3128 -49.1216 103.83 -37.9075 -16.2702 -15.0339 14.61 59.5786 -9.26858 -9.05383 0.0661821 -7.15905 -7.71998 -5.14929 -2.20253 -23.4921 -4.50053 -2.97656 
73.033 93.7143 -17.9151 -101.378 -45.5134 -100.832 -176.67 11.7812 87.7857 -34.4236 16.3327 3.60914 62.2538 4.54034 12.1538 44.9953 -1.33266 1.88983 174.924 14.7788 85.2054 -74.3768 -8.45583 -3.46841 46.6248 3.79886 16.8404 29.5286 0.474063 -6.54449 -0.376183 8.12829 -89.5611 10.6205 -0.547251 0.92231 -1.05065 -0.506113 0.945493 -23.5851 -0.799138 0.715211 -3.5725 -0.799123 0.715212 110.601 -52.0488 -69.3625 33.0136 -0.458312 -11.9888 -4.65271 -39.3997 -16.4005 -4.85564 -0.277201 1.56425 -73.5397 -48.7003 103.513 -37.2726 -12.168 -23.5632 12.6365 54.687 -8.53939 -6.91937 0.0037737 -6.64454 -7.26672 -4.94606 -0.932884 -22.5625 -4.49097 -2.47269 
